<svg viewBox="0 0 315.71 65.52" xmlns="http://www.w3.org/2000/svg"><path d="M10.37.9h12.2a2 2 0 0 1 1.86 1.23L35.46 28a1.17 1.17 0 0 1 .09.24l3.57 12.66.36-.09L39.3 30a1.72 1.72 0 0 1 0-.32l3.78-27a2 2 0 0 1 2-1.75H57a2 2 0 0 1 2 2.31l-8.3 59.63a2 2 0 0 1-2 1.75H35.5a2 2 0 0 1-1.86-1.22L23.33 39.62a.92.92 0 0 1-.09-.23L19.5 26.73l-.36.09.17 12.18a1.06 1.06 0 0 1 0 .31l-3.26 23.55a2 2 0 0 1-2 1.76H2a2 2 0 0 1-2-2.31L8.36 2.65A2 2 0 0 1 10.37.9zm64.51 63.72h-12a2 2 0 0 1-2-2.31L69.2 2.65a2 2 0 0 1 2-1.75h12a2 2 0 0 1 2 2.31l-8.31 59.66a2 2 0 0 1-2.01 1.75zm47.96-47.3l-6.26 45.54a2 2 0 0 1-2 1.76h-12.21a2 2 0 0 1-2-2.31l6.12-44.43a2 2 0 0 0-2-2.31H92a2 2 0 0 1-2-2.32l1.56-10.7a2 2 0 0 1 2-1.74h46.56a2 2 0 0 1 2 2.32l-1.56 10.7a2 2 0 0 1-2 1.74h-13.71a2 2 0 0 0-2.01 1.75zm37.74 27.05a2 2 0 0 0-2 1.75l-2.31 16.74a2 2 0 0 1-2 1.76h-12.2a2 2 0 0 1-2-2.31l8.33-59.66a2 2 0 0 1 2-1.75h23.7c13.14 0 22.5 7 20.7 22-1.48 10.81-5.84 15-13.28 18.85a2 2 0 0 0-.75 3l11.71 16.74a2 2 0 0 1-1.67 3.2h-15.05a2.05 2.05 0 0 1-1.71-.94L162.29 45.3a2 2 0 0 0-1.71-.93zm9.66-13.86a8.19 8.19 0 0 0 8.28-7.38c.45-3.87-1.44-7.2-6.21-7.2h-7.69a2 2 0 0 0-2 1.74l-1.5 10.52a2 2 0 0 0 2 2.32zm31.41-8.64C203.81 7.2 217.85 0 231.08 0s25.47 7.29 23.4 21.87l-3.15 21.78c-2.07 14.58-15.66 21.87-29.52 21.87-13.23 0-25.38-7.29-23.31-21.87zm13 21.78c-.63 4.59 4.14 6.93 9 6.93 5.22 0 10.89-2.34 11.61-7.38l3.15-21.33c.72-4.77-3.78-7.2-9-7.2s-10.89 2.43-11.61 7.2zM300 .9h13.73a2 2 0 0 1 1.66 3.19l-19.5 27.84a2 2 0 0 0-.2 2l11.78 27.87a2 2 0 0 1-1.87 2.82h-14.25a2 2 0 0 1-1.9-1.32l-6.27-16.59a2 2 0 0 0-3.61-.37l-11.08 17.34a2 2 0 0 1-1.71.94H253a2 2 0 0 1-1.66-3.2l19.43-27.65a2 2 0 0 0 .21-2l-11.8-28.1A2 2 0 0 1 261.05.9h14.33a2 2 0 0 1 1.91 1.34l6 16.6a2 2 0 0 0 3.61.42l11.35-17.44A2 2 0 0 1 300 .9z"/></svg>