<svg width="100" height="100" xmlns="http://www.w3.org/2000/svg"><path d="M100 68.718c0 1.196 0 2.39-.009 3.583a154.934 154.934 0 0 1-.043 3.017 43.858 43.858 0 0 1-.578 6.568 22.128 22.128 0 0 1-2.06 6.246 21 21 0 0 1-9.18 9.18 22.143 22.143 0 0 1-6.24 2.058c-2.175.358-4.37.552-6.57.578-1.006.026-2.012.041-3.018.045-1.195.007-2.389.007-3.582.007H31.28c-1.193 0-2.387 0-3.582-.007a141.037 141.037 0 0 1-3.018-.043 43.794 43.794 0 0 1-6.57-.58 22.094 22.094 0 0 1-6.24-2.057 21.003 21.003 0 0 1-9.18-9.179 22.167 22.167 0 0 1-2.06-6.248 43.83 43.83 0 0 1-.578-6.565C.026 74.314.013 73.308.01 72.3 0 71.105 0 69.914 0 68.718V31.282c0-1.196 0-2.392.009-3.587.004-1.005.017-2.011.043-3.016.028-2.2.221-4.394.578-6.565a22.165 22.165 0 0 1 2.06-6.248 21 21 0 0 1 9.18-9.181A22.165 22.165 0 0 1 18.109.628c2.174-.356 4.37-.55 6.57-.578C25.684.024 26.69.01 27.695.007 28.89 0 30.087 0 31.278 0h37.44c1.195 0 2.39 0 3.584.007 1.006.003 2.012.018 3.018.043 2.2.028 4.395.222 6.567.578a22.177 22.177 0 0 1 6.243 2.057 20.996 20.996 0 0 1 9.183 9.18 22.158 22.158 0 0 1 2.057 6.247c.357 2.171.55 4.367.578 6.567.026 1.007.039 2.013.043 3.018.009 1.196.009 2.39.009 3.583v37.438z" fill-rule="evenodd"/></svg>