<svg width="240" height="52" fill="none" xmlns="http://www.w3.org/2000/svg"><g clip-path="url(#clip0)"><path d="M33.776 1.656c.048-.336.168-.6.36-.792.192-.192.456-.288.792-.288h11.016c.336 0 .576.096.72.288.192.192.264.456.216.792l-5.904 48.24c-.048.336-.192.6-.432.792-.192.192-.456.288-.792.288H29.24c-.576 0-.96-.24-1.152-.72L16.856 25.92c-.096-.192-.192-.264-.288-.216-.096.048-.168.168-.216.36l-2.736 23.832c-.048.336-.192.6-.432.792-.192.192-.456.288-.792.288H1.376c-.336 0-.6-.096-.792-.288-.144-.192-.192-.456-.144-.792l5.976-48.24c.048-.336.168-.6.36-.792.192-.192.456-.288.792-.288H18.08c.624 0 1.032.24 1.224.72l11.088 24.336c.096.192.192.264.288.216.096-.048.168-.168.216-.36l2.88-23.832zm13.514 49.32c-.336 0-.6-.096-.792-.288-.144-.192-.192-.456-.144-.792l5.976-48.24c.048-.336.168-.6.36-.792.192-.192.456-.288.792-.288h11.016c.336 0 .576.096.72.288.192.192.264.456.216.792l-5.904 48.24c-.048.336-.192.6-.432.792-.192.192-.456.288-.792.288H47.29zm60.25-50.4c.288 0 .504.096.648.288.192.192.264.456.216.792l-1.152 9.504c-.048.336-.168.6-.36.792-.192.192-.456.288-.792.288H94.436c-.24 0-.408.144-.504.432l-4.536 37.224c-.048.336-.192.6-.432.792-.192.192-.456.288-.792.288H77.156c-.336 0-.6-.096-.792-.288-.144-.192-.192-.456-.144-.792l4.608-37.224c0-.288-.12-.432-.36-.432H69.164c-.336 0-.6-.096-.792-.288-.144-.192-.192-.456-.144-.792l1.152-9.504c.048-.336.168-.6.36-.792a1.34 1.34 0 0 1 .864-.288h36.936zm24.491 50.4c-.576 0-.936-.264-1.08-.792l-5.4-18.216c-.096-.24-.264-.36-.504-.36h-2.736c-.24 0-.408.144-.504.432l-2.16 17.856c-.048.336-.192.6-.432.792-.192.192-.456.288-.792.288h-11.016c-.336 0-.6-.096-.792-.288-.144-.192-.192-.456-.144-.792l5.976-48.24c.048-.336.168-.6.36-.792.192-.192.456-.288.792-.288h21.168c4.32 0 7.752 1.224 10.296 3.672 2.544 2.448 3.816 5.76 3.816 9.936 0 .48-.048 1.296-.144 2.448-.384 3.168-1.488 5.952-3.312 8.352-1.776 2.352-4.056 4.08-6.84 5.184a.433.433 0 0 0-.288.288.306.306 0 0 0 0 .288l6.48 18.936c.048.096.072.24.072.432 0 .24-.096.456-.288.648-.192.144-.456.216-.792.216h-11.736zm-7.344-38.808c-.24 0-.408.144-.504.432l-1.008 8.28c0 .288.12.432.36.432h6.48c1.632 0 2.976-.48 4.032-1.44 1.104-.96 1.656-2.208 1.656-3.744 0-1.2-.432-2.16-1.296-2.88-.816-.72-1.896-1.08-3.24-1.08h-6.48zm43.465 39.672c-3.552 0-6.648-.672-9.288-2.016-2.592-1.344-4.608-3.24-6.048-5.688-1.392-2.448-2.088-5.328-2.088-8.64 0-.96.072-1.944.216-2.952l1.656-13.536c.48-3.744 1.704-7.056 3.672-9.936a20.142 20.142 0 0 1 7.632-6.696C167.072.792 170.6 0 174.488 0c3.552 0 6.648.672 9.288 2.016 2.64 1.296 4.656 3.168 6.048 5.616 1.44 2.4 2.16 5.232 2.16 8.496 0 .912-.072 1.872-.216 2.88l-1.656 13.536c-.432 3.84-1.656 7.224-3.672 10.152-1.968 2.88-4.536 5.136-7.704 6.768-3.168 1.584-6.696 2.376-10.584 2.376zm1.44-11.592c1.968 0 3.624-.648 4.968-1.944 1.344-1.344 2.136-3.12 2.376-5.328l1.728-14.112c.048-.288.072-.72.072-1.296 0-1.824-.504-3.264-1.512-4.32-1.008-1.104-2.4-1.656-4.176-1.656-1.92 0-3.552.672-4.896 2.016-1.344 1.296-2.136 3.048-2.376 5.256l-1.728 14.112c-.048.288-.072.72-.072 1.296 0 1.824.504 3.288 1.512 4.392 1.008 1.056 2.376 1.584 4.104 1.584zm22.937 10.728c-.528 0-.792-.192-.792-.576 0-.096.096-.336.288-.72l15.624-23.616c.048-.144.072-.336.072-.576l-9.864-23.616c-.048-.096-.072-.24-.072-.432 0-.576.312-.864.936-.864h12.096c.576 0 .96.264 1.152.792l5.112 13.536c.096.192.192.288.288.288.144 0 .24-.096.288-.288l8.424-13.536c.336-.528.792-.792 1.368-.792h12.024c.528 0 .792.192.792.576 0 .24-.096.48-.288.72l-15.48 23.616a.812.812 0 0 0-.072.576l9.72 23.616c.048.144.072.312.072.504 0 .528-.312.792-.936.792h-11.952c-.576 0-.96-.264-1.152-.792l-5.184-13.464c-.048-.192-.144-.288-.288-.288-.096 0-.192.096-.288.288l-8.496 13.464c-.336.528-.792.792-1.368.792h-12.024z" fill="#000"/></g><defs><clipPath id="clip0"><path fill="#fff" d="M0 0H240V52H0z"/></clipPath></defs></svg>